<svg xmlns="http://www.w3.org/2000/svg" style="display: none;">
  <symbol id="code" viewBox="0 0 24 24" fill="none" stroke="currentColor" stroke-width="2" stroke-linecap="round" stroke-linejoin="round">
    <path d="m7 8l-4 4l4 4m10-8l4 4l-4 4M14 4l-4 16"/>
  </symbol>
  <symbol id="cpu" viewBox="0 0 24 24" fill="none" stroke="currentColor" stroke-width="2" stroke-linecap="round" stroke-linejoin="round">
    <rect width="4" height="4" x="4" y="4" rx="1"/><rect width="4" height="4" x="4" y="10" rx="1"/><rect width="4" height="4" x="4" y="16" rx="1"/><rect width="4" height="4" x="10" y="4" rx="1"/><rect width="4" height="4" x="10" y="10" rx="1"/><rect width="4" height="4" x="10" y="16" rx="1"/><rect width="4" height="4" x="16" y="4" rx="1"/><rect width="4" height="4" x="16" y="10" rx="1"/><rect width="4" height="4" x="16" y="16" rx="1"/>
  </symbol>
  <symbol id="brain" viewBox="0 0 24 24" fill="none" stroke="currentColor" stroke-width="2" stroke-linecap="round" stroke-linejoin="round">
    <path d="M9.5 2A2.5 2.5 0 0 1 12 4.5v15a2.5 2.5 0 0 1-4.96.44 2.5 2.5 0 0 1-2.96-3.08 3 3 0 0 1-.34-5.58 2.5 2.5 0 0 1 1.32-4.24A2.5 2.5 0 0 1 9.5 2Z"/><path d="M14.5 2A2.5 2.5 0 0 0 12 4.5v15a2.5 2.5 0 0 0 4.96.44 2.5 2.5 0 0 0 2.96-3.08 3 3 0 0 0 .34-5.58 2.5 2.5 0 0 0-1.32-4.24A2.5 2.5 0 0 0 14.5 2Z"/>
  </symbol>
  <symbol id="chart-line" viewBox="0 0 24 24" fill="none" stroke="currentColor" stroke-width="2" stroke-linecap="round" stroke-linejoin="round">
    <path d="M3 3v18h18"/><path d="m19 9-5 5-4-4-3 3"/>
  </symbol>
  <symbol id="leaf" viewBox="0 0 24 24" fill="none" stroke="currentColor" stroke-width="2" stroke-linecap="round" stroke-linejoin="round">
    <path d="M11 20A7 7 0 0 1 9.8 6.1C15.5 5 17 4.48 19 2c1 2 2 4.18 2 8 0 5.5-4.78 10-10 10Z"/><path d="M2 21c0-3 1.85-5.36 5.08-6C9.5 14.52 12 13 13 12"/>
  </symbol>
  <symbol id="palette" viewBox="0 0 24 24" fill="none" stroke="currentColor" stroke-width="2" stroke-linecap="round" stroke-linejoin="round">
    <circle cx="13.5" cy="6.5" r=".5" fill="currentColor"/><circle cx="17.5" cy="10.5" r=".5" fill="currentColor"/><circle cx="8.5" cy="7.5" r=".5" fill="currentColor"/><circle cx="6.5" cy="12.5" r=".5" fill="currentColor"/><path d="M12 2C6.5 2 2 6.5 2 12s4.5 10 10 10c.926 0 1.648-.746 1.648-1.688 0-.437-.18-.835-.437-1.125-.29-.289-.438-.652-.438-1.125a1.64 1.64 0 0 1 1.668-1.668h1.996c3.051 0 5.555-2.503 5.555-5.555C21.965 6.5 17.5 2 12 2z"/>
  </symbol>
  <symbol id="flask" viewBox="0 0 24 24" fill="none" stroke="currentColor" stroke-width="2" stroke-linecap="round" stroke-linejoin="round">
    <path d="M10 2h4m-2 6V6m0 8v4M6 6h12l-2 10H8L6 6z"/><path d="M8 22h8"/>
  </symbol>
  <symbol id="users" viewBox="0 0 24 24" fill="none" stroke="currentColor" stroke-width="2" stroke-linecap="round" stroke-linejoin="round">
    <path d="M16 21v-2a4 4 0 0 0-4-4H6a4 4 0 0 0-4 4v2"/><circle cx="9" cy="7" r="4"/><path d="M22 21v-2a4 4 0 0 0-3-3.87M16 3.13a4 4 0 0 1 0 7.75"/>
  </symbol>
  <symbol id="book" viewBox="0 0 24 24" fill="none" stroke="currentColor" stroke-width="2" stroke-linecap="round" stroke-linejoin="round">
    <path d="M4 19.5A2.5 2.5 0 0 1 6.5 17H20"/><path d="M6.5 2H20v20H6.5A2.5 2.5 0 0 1 4 19.5v-15A2.5 2.5 0 0 1 6.5 2z"/>
  </symbol>
  <symbol id="coffee" viewBox="0 0 24 24" fill="none" stroke="currentColor" stroke-width="2" stroke-linecap="round" stroke-linejoin="round">
    <path d="M18 8h1a4 4 0 0 1 0 8h-1"/><path d="M2 8h16v9a4 4 0 0 1-4 4H6a4 4 0 0 1-4-4V8z"/><line x1="6" x2="6" y1="1" y2="4"/><line x1="10" x2="10" y1="1" y2="4"/><line x1="14" x2="14" y1="1" y2="4"/>
  </symbol>
  <symbol id="check" viewBox="0 0 24 24" fill="none" stroke="currentColor" stroke-width="2" stroke-linecap="round" stroke-linejoin="round">
    <path d="M20 6 9 17l-5-5"/>
  </symbol>
  <symbol id="mail" viewBox="0 0 24 24" fill="none" stroke="currentColor" stroke-width="2" stroke-linecap="round" stroke-linejoin="round">
    <rect width="20" height="16" x="2" y="4" rx="2"/><path d="m22 7-8.97 5.7a1.94 1.94 0 0 1-2.06 0L2 7"/>
  </symbol>
  <symbol id="brand-github" viewBox="0 0 24 24" fill="none" stroke="currentColor" stroke-width="2" stroke-linecap="round" stroke-linejoin="round">
    <path d="M15 22v-4a4.8 4.8 0 0 0-1-3.5c3 0 6-2 6-5.5.08-1.25-.27-2.48-1-3.5.28-1.15.28-2.35 0-3.5 0 0-1 0-3 1.5-2.64-.5-5.36-.5-8 0C6 2 5 2 5 2c-.3 1.15-.3 2.35 0 3.5A5.403 5.403 0 0 0 4 9c0 3.5 3 5.5 6 5.5-.39.49-.68 1.05-.85 1.65-.17.6-.22 1.23-.15 1.85v4"/><path d="M9 18c-4.51 2-5-2-7-2"/>
  </symbol>
  <symbol id="brand-linkedin" viewBox="0 0 24 24" fill="none" stroke="currentColor" stroke-width="2" stroke-linecap="round" stroke-linejoin="round">
    <path d="M4 4v13a2 2 0 0 0 2 2h12a2 2 0 0 0 2-2V8a2 2 0 0 0-2-2h-5"/><rect width="8" height="4" x="6" y="2" rx="1"/><path d="M6 12v5"/><path d="M10 16v-4a2 2 0 0 1 4 0v4"/>
  </symbol>
  <symbol id="brand-twitter" viewBox="0 0 24 24" fill="none" stroke="currentColor" stroke-width="2" stroke-linecap="round" stroke-linejoin="round">
    <path d="M22 4s-.7 2.1-2 3.4c1.6 10-9.4 17.3-12.7 12.5S.3 5.5 4.5 2.5c2.4 1.3 5.3 1.3 7.5 0C14.5 2 22 4 22 4s-1.4-1.1-2.5-2.1c-1.1.6-2.4 1-3.8.8-1.4-.2-2.7-.9-3.6-1.9-.9-1-.9-2.3-.2-3.4.7-1 1.9-1.5 3.2-1.4.9.1 1.8.4 2.6.9.8-.2 1.6-.4 2.4-.7z"/>
  </symbol>
</svg>