<svg xmlns="http://www.w3.org/2000/svg" width="80" height="80" fill="none"><path fill="#FC392B" fill-rule="evenodd" d="M45.853 31.574a.923.923 0 0 1-.027.236l.07-.037.07-.037c.755-.378 1.515-.764 2.272-1.157l-.394-1.983-2.01 2.847.002.014c.007.037.014.073.017.117ZM31.725 59.457l-.072-.001h-.002c-.63-.009-2.102-.028-3.668-.069-2.095-.058-4.271-.135-5.008-.3a.922.922 0 0 0-.074-.021.628.628 0 0 1-.304-.165l-.058-.058-.035-.077c-.876-1.983-1.705-5.914-1.709-9.522 0-1.651.177-3.229.629-4.525l.135-.382 1.933.416c.17-.567.37-1.053.613-1.43l.135-.205h.243c.163.008.26.039.406.085.047.015.1.032.162.05.231.073.528.177.868.3.686.248 1.554.572 2.407.9l.614.236h.002l.318.122c.725-1.701 1.554-3.113 2.457-4.298a15.15 15.15 0 0 1-2.63.232h-.032c-1.184-.008-2.423-.467-3.418-1.026-.486-.29-.91-.568-1.242-.857l-6.547-3.893 1.782 7.867-7.64-2.596 3.377 7.326-8.014-.945 4.827 6.466-8.036.737 6.065 5.316L2.5 61.532h32.003c-.9-.146-1.84-1.003-2.778-2.075Zm38.075-.314 7.37 2.392v.004h-29.3c.548-4.367 1.335-12.084 1.335-20.568 0-1.145-.131-2.09-.363-2.885-.354-1.788 2.927-3.942 5.983-5.949l.507-.332.042.278-.868 11.103 8.303-.505 3.95.312-2.11 4.584 8.01-.953-4.827 6.466 8.036.737-6.069 5.316ZM35.487 35.521a.414.414 0 0 1-.016-.036.434.434 0 0 0-.015-.037c-.185-.498-.444-1.077-.502-1.107-.166-.162-.305-.39-.305-.645.04-.363.174-.545.294-.707.068-.092.132-.178.17-.288l.053-.116a6.145 6.145 0 0 1-1.894-2.658l-.05.005c-.034.003-.067.007-.1.007-.02 0-.039 0-.057.002l-.051.001c-.417 0-.768-.08-1.077-.208l-1.254 6.312a6.922 6.922 0 0 0 1.563.173 7.97 7.97 0 0 0 3.24-.698Zm-7.709-.636c-.629.003-1.184.266-1.616.547-.18.118-.362.233-.542.347-.306.194-.606.385-.878.572l-.07-5.32 5.112 4.726a3.712 3.712 0 0 1-.806-.46 1.95 1.95 0 0 0-1.2-.412Z" clip-rule="evenodd"/><path fill="#fff" fill-rule="evenodd" d="m62.813 41.756 6.505.517.71-10.567-.749-11.914-4.814.478c0 .965-.035 1.62-.197 1.999h3.33v.451h-4.6v-.343c-.346-.24-.765-.596-1.207-.972-.45-.382-.922-.785-1.366-1.104l-6.003-.451 1.871 12.188-.795 10.162 7.315-.444Zm-31.49-13.974c.468.899.637 1.2 1.803 1.242 1.194.05 2.73-1.376 4.528-3.043l.572-.53c1.462-1.319 3.144-2.689 5.162-3.367l-.066-.035c-.31-.18-.606-.433-.92-.7-.752-.643-1.602-1.368-2.984-1.368-2.407-.031-6.327 2.11-7.6 4.286a4.973 4.973 0 0 0-.691 2.454c0 .428.073.806.197 1.06Zm13.103.737c.015.266-.378.783-1.003.887a3.654 3.654 0 0 1-.633.062c-.64-.023-.984-.174-.988-.652.004-1.139.741-1.864 1.424-1.864.065 0 .131.008.197.02.563.1 1.007.775 1.003 1.547Zm-2.828 5.594c1.705-.984 2.573-1.644 2.986-2.045.351-.363.355-.455.351-.482a.172.172 0 0 0-.012-.05 1.504 1.504 0 0 0-.077-.19 1.612 1.612 0 0 0-.154-.27c-4.614 1.555-7.979 2.115-8.874 2.246-.061.104-.12.19-.165.257-.028.042-.051.076-.066.102.004.008.008.011.015.02.242.266.381.611.53.98.032.08.065.16.1.242.127.343.28.706.366.864a6.499 6.499 0 0 0 1.284-.166 29.824 29.824 0 0 1 3.264-1.257c.142-.073.281-.153.426-.236l.026-.015Zm-12.496 5.721h-.052c-.937.004-2.075-.4-2.966-.906-.818-.428-1.44-1.057-1.517-1.223.062-.228 1.108-.891 2.091-1.509.344-.227.76-.4 1.115-.397a.99.99 0 0 1 .64.22c.934.721 2.312 1.111 3.836 1.115 1.169 0 2.43-.247 3.623-.787a.85.85 0 0 0 .08.112l.021.02c.03.03.063.065.107.1a15.705 15.705 0 0 0-3.407 2.789c-1.003.274-2.18.451-3.572.466Zm-5.29 5.64-1.96-.42c-1.362 3.882-.15 10.953 1.065 13.697.343.343 9.051.424 9.051.424l9.205-.575c3.407.328 2.134-14.202 2.134-14.202L31.505 46.37s-6.593-2.604-7.026-2.604c-.27.401-.49.991-.667 1.709Z" clip-rule="evenodd"/><path fill="#1A1A1A" d="m38.762 51.613.455.035.243-3.171-.455-.039-.243 3.175Zm-1.732.081.455.039.255-3.202-.456-.035-.254 3.198Zm-1.729.077.455.039.267-3.233-.456-.039-.266 3.233Zm-1.732.078.455.038.278-3.26-.455-.038-.278 3.26ZM27.45 48.19l-.455-.042-.32 3.38.455.042.32-3.38Zm-1.71-.212-.454-.046-.332 3.41.455.043.332-3.407Zm-1.708-.216-.456-.043-.343 3.442.455.046.344-3.445ZM38.546 53.4l.29 3.248.454-.039-.285-3.244-.46.035Zm-1.69.05.32 3.267.455-.046-.32-3.268-.455.047Zm-1.682.046.355 3.29.455-.045-.355-3.291-.455.046Zm-8.407-.374.52 3.395.452-.07-.52-3.395-.452.07Zm-1.674-.212.555 3.418.452-.074-.56-3.418-.447.074Zm-1.679-.209.59 3.438.452-.077-.59-3.442-.452.081Zm38.38-26.644h-4.598v.46h4.599v-.46Zm1.772 2.38h4.598v-.454h-4.599v.455Zm4.224-4.266h-4.599v.459h4.6v-.46Zm-4.348 13.796h4.599v-.455h-4.599v.455Zm-.062-11.435h4.6v-.46h-4.6v.46Zm-.08 13.345h4.598v-.455H63.3v.455Zm.285-3.816h4.599v-.455h-4.6v.455Zm.281-3.815h4.603v-.456h-4.603v.456Zm6.266-13.457-5.78.574c-.277-.655-1.103-.902-2.43-.902-1.265 0-2.276.359-2.643.84l-5.937-.447.088.567 1.162 7.562c-2.477 1.567-5.587 3.23-8.627 4.75-.05.026-.093.05-.139.073.02-.089.03-.17.027-.236-.02-.3-.127-.513-.274-.802a2.012 2.012 0 0 0-.274-.386c-.116-.112-.255-.258-.548-.27-.019 0-.042.004-.07.008a6.037 6.037 0 0 0-.463-5.49c1.482-1.088 2.208-2.373 1.91-2.979-.015-.003-1.184-.328-2.46-.459-.68-.401-1.918-2.13-4.256-2.133-2.86.034-6.814 2.191-8.384 4.73a5.798 5.798 0 0 0-.822 2.924c0 .529.085 1.022.282 1.447.397.96 1.13 1.77 2.52 1.77l.107-.003c.05 0 .1-.008.15-.012a6.138 6.138 0 0 0 1.895 2.659l-.054.115c-.108.301-.401.425-.463.996-.004.254.135.482.305.644.058.03.316.61.502 1.107.011.027.019.05.03.074a7.965 7.965 0 0 1-3.237.698c-1.362.004-2.573-.37-3.275-.922a1.95 1.95 0 0 0-1.2-.413c-.629.004-1.184.266-1.617.548-.544.355-1.122.698-1.585 1.03-.444.351-.872.613-.922 1.234 0 .058.008.128.027.201.22.687.964 1.235 1.96 1.825.995.556 2.23 1.019 3.418 1.026h.03a15.568 15.568 0 0 0 2.632-.231c-.903 1.184-1.732 2.596-2.458 4.298-.3-.12-.617-.24-.933-.363a122.96 122.96 0 0 0-2.408-.899 26.064 26.064 0 0 0-.868-.3c-.25-.074-.347-.12-.567-.136h-.247l-.135.205c-.243.378-.444.864-.613 1.431l-1.933-.417-.135.382c-.456 1.297-.63 2.874-.63 4.526.009 3.607.834 7.539 1.71 9.522l.035.077.058.058c.192.162.262.142.378.185.74.166 2.916.243 5.008.3 1.631.043 3.16.062 3.742.07.933 1.077 1.879 1.93 2.785 2.08h13.357c.548-4.371 1.335-12.088 1.335-20.568 0-1.146-.131-2.09-.363-2.886-.374-1.886 3.303-4.182 6.49-6.28l.042.277-.868 11.104 8.303-.506 7.357.583.78-11.547-.807-12.913Zm-24.14 3.306a.152.152 0 0 0 .027.008h-.03l.003-.008ZM24.703 44.102c.61.192 2.095.744 3.457 1.269l.76.293-.093.235-4.444-.953a5 5 0 0 1 .32-.844Zm2.89 14.36a106.687 106.687 0 0 1-3.083-.128c-.428-.027-.79-.058-1.046-.093l-.204-.03c-.775-1.86-1.555-5.625-1.555-8.967 0-1.416.14-2.754.456-3.838l6.358 1.365c-.336.988-.64 2.049-.907 3.206-.447 1.922-.34 3.43 1.165 5.687l.154 1.042.452-.066-.023-.158c.108.143.216.29.335.44.413.525.838 1.08 1.266 1.617-.841-.02-2.099-.04-3.368-.078Zm16.832-29.943c.016.266-.378.783-1.003.887a3.653 3.653 0 0 1-.632.062c-.64-.023-.984-.174-.988-.652.004-1.138.74-1.864 1.424-1.864.065 0 .13.008.196.02.564.1 1.007.775 1.004 1.547Zm-11.3.505c-1.165-.042-1.335-.343-1.802-1.242-.123-.255-.196-.633-.196-1.061 0-.768.235-1.702.69-2.454 1.273-2.176 5.193-4.317 7.6-4.286 1.957 0 2.848 1.454 3.905 2.068l.066.034c-2.018.68-3.7 2.05-5.162 3.369-2.045 1.882-3.781 3.626-5.1 3.572Zm-4.024 10.81h-.05c-.938.004-2.076-.4-2.967-.906-.818-.428-1.439-1.057-1.516-1.223.062-.228 1.107-.891 2.091-1.509.343-.227.76-.4 1.115-.397.228 0 .428.058.64.22.934.721 2.311 1.111 3.835 1.115 1.17 0 2.431-.247 3.623-.787.023.038.05.077.081.112.035.034.073.077.127.12a15.705 15.705 0 0 0-3.406 2.789c-1.003.274-2.18.451-3.573.466Zm5.483 18.546a67.06 67.06 0 0 1-.626-1.535l.37-.043-.389-3.31-.455.054.351 2.982c-1.273-3.325-1.134-4.135-1.134-4.81 0-1.266.787-2.906 2.157-4.619l6.697-.575c-.282 1.713-1.072 6.802-1.076 9.881.004.621.027 1.157.112 1.601l-6.007.374Zm8.101-2.828c-.162.791-.378 1.447-.632 1.864-.193.305-.363.455-.536.52-.074-.343-.124-.887-.116-1.531-.004-3.588 1.161-10.297 1.161-10.309l.1-.586-6.948.594c.058-.062.112-.124.174-.185l7.033-1.177c.066.899.193 2.92.193 5.139-.004 1.964-.104 4.082-.428 5.671Zm1.899-23.484c-.413.401-1.281 1.061-2.986 2.045-.155.089-.301.174-.452.25a29.83 29.83 0 0 0-3.264 1.258 6.5 6.5 0 0 1-1.285.166 8.647 8.647 0 0 1-.366-.864c-.193-.459-.336-.899-.629-1.223a.055.055 0 0 1-.015-.02c.038-.065.13-.188.231-.358.895-.131 4.26-.69 8.874-2.245.05.07.112.173.154.27.035.073.062.139.077.189a.174.174 0 0 1 .012.05c.004.027 0 .12-.351.482Zm24.734 10.205-6.505-.517-7.315.444.795-10.163-1.871-12.187 6.003.451c.88.633 1.875 1.593 2.573 2.076v.343h4.6v-.451h-3.33c.162-.378.196-1.034.196-1.999l4.815-.478.749 11.913-.71 10.568Zm-5.59-8.122h4.598v-.455h-4.598v.456ZM61.13 22.27h-4.599v.459h4.6v-.46Zm2.623 8.07h4.6v-.458h-4.6v.459Zm-5.89-.034h4.598v-.455h-4.599v.455Zm3.599-6.142h-4.599v.455h4.599v-.455Zm-3.931 4.248h4.598v-.456H57.53v.456Zm-.093 11.466h4.599v-.455h-4.6v.455Zm.652-7.67h4.599v-.455h-4.6v.455Zm-.162 1.917h4.599v-.459h-4.6v.46Zm-.162 1.918h4.599v-.455h-4.6v.455Zm-.162 1.917h4.599v-.455h-4.6v.456Z"/></svg>
