<svg fill="none" height="27" viewBox="0 0 136 27" width="136" xmlns="http://www.w3.org/2000/svg">
	<g fill="#111827">
		<path d="m111.901.658691h7.663l8.912 13.627009-.312-5.68659v-7.940419h7.836v24.965509h-7.663l-8.911-13.5923.312 5.6866v7.9057h-7.837z"/>
		<path d="m87.0215 25.6242v-24.965509h12.4481c2.8084 0 4.8544.277395 6.1374.797509 1.491.65881 2.635 1.73372 3.398 3.22471.589 1.2136.902 2.53123.902 3.98755 0 2.04574-.625 3.71014-1.908 4.99314-.45.4507-.97.8668-1.56 1.1789-.381.1734-.936.4161-1.664.7281l6.068 10.0903h-8.738l-4.8199-8.8073h-2.3232v8.7726zm11.1651-19.72969h-3.2247v5.82529h3.2594c2.5317 0 3.8137-.9709 3.8137-2.87797 0-1.97643-1.282-2.94732-3.8484-2.94732z"/>
		<path d="m84.3286.658691v24.965509h-8.1831v-24.965509z"/>
		<path d="m57.2818 15.9501v9.6741h-8.1832v-24.965509h8.1832v8.425859h7.7323v-8.425859h8.1832v24.965509h-8.1832v-9.6741z"/>
		<path d="m47.5617 10.1943h-7.767c-.2428-2.73932-1.7338-4.09162-4.4384-4.09162-3.086 0-4.6116 2.4272-4.6116 7.28162 0 2.0804.312 3.6408.9015 4.7157.7975 1.387 2.1151 2.0805 4.0222 2.0805 2.4272 0 3.8142-1.4217 4.1956-4.2303h7.8711c-.3814 3.2247-1.6297 5.7559-3.7795 7.5937-2.1152 1.8377-4.8544 2.7392-8.1485 2.7392-4.1262 0-7.3509-1.1789-9.7088-3.5367-2.3578-2.3579-3.5368-5.5826-3.5368-9.6395 0-3.95288 1.2136-7.14292 3.6062-9.57012 2.3231-2.35785 5.2705-3.53678 8.8419-3.53678 7.5243 0 11.8933 3.67548 12.5521 10.1943z"/>
		<path d="m22.0529 7.90574h-7.7671c-.104-.79751-.5201-1.35229-1.1789-1.69904-.5895-.31206-1.283-.45076-2.1151-.45076-1.73376 0-2.60062.48544-2.60062 1.42165 0 .9362 1.24828 1.73371 3.71012 2.35785 3.5715.93616 5.8947 1.66436 6.9349 2.21916 2.4619 1.3523 3.7102 3.3287 3.7102 5.9293 0 2.8086-1.0749 4.9584-3.2594 6.4841-2.0458 1.4217-4.8544 2.1151-8.4259 2.1151-3.2247 0-5.85995-.8321-7.94041-2.4965-1.97644-1.5604-3.016667-3.5368-3.12069-5.86h7.8364c.17337.8669.62413 1.5257 1.35229 1.9765.65882.4161 1.45631.6241 2.32321.6241 2.2538 0 3.3981-.6241 3.3981-1.8377 0-.9362-1.2483-1.7338-3.7102-2.3232-3.53678-.8669-5.85995-1.6297-6.93486-2.2192-2.46188-1.3523-3.710151-3.4327-3.710151-6.17201 0-2.5659 1.040231-4.54233 3.086011-5.96398 1.90709-1.352298 4.50766-2.01111 7.7324-2.01111 3.294 0 5.8599.762835 7.7324 2.32318 1.6296 1.3523 2.6352 3.22471 2.9473 5.58256z"/>
	</g>
</svg>