<svg
  viewBox="11 2.5 42 50"
  xmlns="http://www.w3.org/2000/svg"
  fill="none"
  overflow="visible"
>
  <!-- DEBUG: Starting SVG rendering -->

  <!-- Isometric cube -->

  <!-- DEBUG: Drawing face fills for depth -->
  <!-- Top face fill -->
  <path
    d="M18 22 L32 14 L46 22 L32 30 Z"
    fill="#00C2FF" fill-opacity="0.15"
  />
  <!-- Left face fill (originally "Front face") -->
  <path
    d="M18 22 L18 42 L32 50 L32 30 Z"
    fill="#00C2FF" fill-opacity="0.10"
  />
  <!-- Right face fill -->
  <path
    d="M46 22 L46 42 L32 50 L32 30 Z"
    fill="#00C2FF" fill-opacity="0.05"
  />

  <!-- DEBUG: Drawing isometric cube wireframe (outline and internal lines) -->
  <path
    d="M32 14 L46 22 L46 42 L32 50 L18 42 L18 22 Z M18 22 L32 30 M46 22 L32 30 M32 50 L32 30"
    stroke="#00C2FF" stroke-width="2" stroke-linecap="round" stroke-linejoin="round"
  />

  <!-- Central dot (·) -->
  <!-- DEBUG: Drawing central dot -->
  <circle cx="32" cy="32" r="3" fill="#00C2FF"/>

  <!-- Symbols on faces -->
  <!-- DEBUG: Adding symbols Σ, L, M, T -->
  <text x="32" y="26" font-size="8" fill="#00C2FF" text-anchor="middle" font-family="monospace">Σ</text>
  <text x="24" y="36" font-size="8" fill="#00C2FF" text-anchor="middle" font-family="monospace">L</text>
  <text x="40" y="36" font-size="8" fill="#00C2FF" text-anchor="middle" font-family="monospace">M</text>
  <text x="32" y="44" font-size="8" fill="#00C2FF" text-anchor="middle" font-family="monospace">T</text>

  <!-- Experimental accent dot -->
  <!-- DEBUG: Adding experimental indicator dot -->
  <circle cx="32" cy="8" r="3" fill="#FFC107"/>

  <!-- DEBUG: Finished SVG rendering -->
</svg>
